<?xml version="1.0" standalone="no"?>
<!DOCTYPE svg PUBLIC "-//W3C//DTD SVG 20010904//EN"
 "http://www.w3.org/TR/2001/REC-SVG-20010904/DTD/svg10.dtd">
<svg version="1.0" xmlns="http://www.w3.org/2000/svg"
 width="1280.000000pt" height="1280.000000pt" viewBox="0 0 1280.000000 1280.000000"
 preserveAspectRatio="xMidYMid meet">
<metadata>
Created by potrace 1.15, written by Peter Selinger 2001-2017
</metadata>
<g transform="translate(0.000000,1280.000000) scale(0.100000,-0.100000)"
fill="#000000" stroke="none">
<path d="M10000 9895 c-8 -2 -350 -9 -760 -15 -410 -6 -762 -16 -782 -21 -49
-13 -97 -54 -119 -104 -16 -34 -19 -68 -19 -244 0 -192 1 -205 22 -243 13 -23
40 -50 63 -63 22 -12 177 -64 345 -115 168 -51 306 -94 308 -95 1 -1 -16 -55
-39 -121 -39 -113 -250 -737 -651 -1921 -100 -299 -186 -543 -189 -543 -3 0
-194 505 -424 1123 -351 938 -420 1132 -423 1184 -4 61 -4 63 24 73 83 32 258
56 500 69 184 10 221 19 266 67 52 55 56 82 59 325 3 249 -2 273 -64 325 -41
35 -22 29 -485 155 l-407 112 -1185 -22 c-652 -12 -1204 -24 -1227 -27 -53 -6
-114 -51 -138 -100 -16 -34 -18 -63 -16 -253 2 -189 4 -218 21 -252 28 -53 55
-71 315 -204 127 -65 260 -133 296 -152 47 -24 82 -34 118 -36 29 0 56 -6 61
-12 4 -5 61 -160 125 -343 l117 -333 -392 -1172 c-216 -645 -394 -1174 -396
-1176 -4 -5 21 -66 -378 914 -194 479 -451 1109 -570 1402 -119 292 -216 543
-216 557 0 61 183 106 515 126 177 11 226 26 269 84 43 56 49 97 44 332 -4
202 -6 222 -26 261 -12 23 -36 53 -54 66 -18 14 -152 81 -298 149 l-265 123
-125 0 c-142 0 -905 -13 -1235 -20 -121 -3 -443 -10 -715 -16 -471 -9 -497
-10 -538 -30 -26 -13 -54 -38 -70 -62 l-27 -41 3 -210 c1 -116 7 -229 13 -251
12 -46 260 -373 311 -412 49 -36 91 -43 255 -43 146 0 269 -11 343 -30 l35
-10 237 -552 c131 -304 488 -1136 794 -1848 305 -712 677 -1596 826 -1965 149
-368 279 -686 289 -707 17 -33 460 -738 515 -818 27 -40 71 -69 121 -80 39 -9
240 5 295 20 45 13 93 52 114 92 14 26 177 480 894 2478 282 786 259 724 265
718 5 -4 258 -663 622 -1618 118 -311 220 -575 227 -587 6 -12 196 -204 422
-427 361 -355 417 -406 455 -416 52 -14 271 2 322 24 73 31 71 26 378 892 159
450 357 1008 439 1239 82 231 397 1120 700 1975 303 855 560 1574 571 1598 27
54 100 130 160 165 109 64 264 101 501 121 149 12 162 15 200 42 73 52 82 80
92 317 10 233 5 264 -45 322 -16 18 -49 41 -72 49 -23 8 -279 60 -568 116
l-527 100 -203 -1 c-112 -1 -211 -3 -219 -4z"/>
</g>
</svg>
