<?xml version="1.0" standalone="no"?>
<!DOCTYPE svg PUBLIC "-//W3C//DTD SVG 20010904//EN"
 "http://www.w3.org/TR/2001/REC-SVG-20010904/DTD/svg10.dtd">
<svg version="1.0" xmlns="http://www.w3.org/2000/svg"
 width="1280.000000pt" height="640.000000pt" viewBox="0 0 1280.000000 640.000000"
 preserveAspectRatio="xMidYMid meet">
<metadata>
Created by potrace 1.15, written by Peter Selinger 2001-2017
</metadata>
<g transform="translate(0.000000,640.000000) scale(0.100000,-0.100000)"
fill="#000000" stroke="none">
<path d="M0 5565 l0 -805 6400 0 6400 0 0 805 0 805 -6400 0 -6400 0 0 -805z"/>
<path d="M2537 4265 c-208 -39 -382 -158 -486 -330 -44 -73 -95 -224 -118
-350 -14 -83 -18 -156 -18 -425 0 -223 4 -352 13 -410 56 -352 177 -544 417
-660 112 -53 189 -71 345 -77 110 -4 152 -1 230 15 306 63 499 247 575 546 44
174 50 243 50 586 0 364 -9 445 -69 622 -44 128 -85 197 -176 288 -85 86 -186
145 -310 180 -99 29 -338 36 -453 15z m255 -456 c96 -20 149 -97 179 -259 16
-90 23 -563 10 -702 -26 -281 -85 -368 -248 -368 -167 1 -227 89 -254 377 -15
159 -6 597 15 705 28 151 84 229 177 247 62 12 62 12 121 0z"/>
<path d="M11335 4247 c-79 -21 -126 -47 -181 -102 -99 -99 -143 -236 -151
-475 -14 -386 75 -599 284 -681 50 -20 76 -23 178 -22 66 0 134 5 150 10 30 9
30 11 33 86 2 42 1 77 -2 77 -3 0 -31 -7 -63 -15 -164 -43 -288 14 -342 159
-34 92 -44 186 -38 381 5 202 21 277 77 354 66 90 197 115 348 67 22 -7 22 -6
22 72 0 79 0 80 -27 86 -63 14 -239 15 -288 3z"/>
<path d="M241 3978 c38 -150 155 -613 260 -1028 105 -415 199 -790 211 -833
l20 -77 272 2 271 3 51 200 c28 110 81 317 118 460 37 143 139 541 227 885 88
344 162 633 165 643 5 16 -10 17 -247 15 l-252 -3 -138 -600 c-76 -330 -143
-624 -150 -653 -6 -30 -13 -52 -15 -50 -2 3 -67 288 -144 634 -78 346 -144
639 -147 652 l-5 22 -283 0 -283 0 69 -272z"/>
<path d="M3622 4013 l3 -238 208 -3 207 -2 0 -865 0 -865 270 0 270 0 0 865 0
865 205 2 206 3 2 238 2 237 -688 0 -687 0 2 -237z"/>
<path d="M5190 3145 l0 -1105 590 0 590 0 0 235 0 235 -320 0 -320 0 0 220 0
220 255 0 255 0 0 235 0 235 -255 0 -255 0 0 180 0 180 305 0 305 0 0 235 0
235 -575 0 -575 0 0 -1105z"/>
<path d="M6852 3973 c-123 -473 -252 -967 -258 -985 -5 -16 3 -18 79 -18 l85
0 40 163 40 162 178 0 177 0 8 -25 c4 -14 22 -87 39 -162 l32 -138 100 0 c90
0 99 2 94 18 -3 9 -71 276 -151 592 -81 316 -152 595 -159 620 l-13 45 -109 3
-109 3 -73 -278z m237 -221 c35 -152 66 -283 68 -289 4 -10 -27 -13 -136 -13
-82 0 -141 4 -141 9 0 6 29 130 65 276 36 147 65 273 65 281 0 8 3 14 8 14 4
0 36 -125 71 -278z"/>
<path d="M7610 3610 l0 -640 80 0 80 0 1 518 c1 339 4 507 10 487 6 -16 67
-237 138 -490 l128 -460 86 -3 85 -3 15 53 c9 29 68 242 131 473 64 231 121
429 126 440 5 12 9 -183 9 -497 l1 -518 90 0 90 0 0 640 0 640 -123 0 -123 0
-138 -482 c-76 -266 -141 -489 -145 -495 -6 -12 -25 47 -207 675 l-88 302
-123 0 -123 0 0 -640z"/>
<path d="M8920 3610 l0 -640 300 0 300 0 0 75 0 75 -202 2 -203 3 -3 218 -2
217 165 0 165 0 0 75 0 75 -165 0 -165 0 0 195 0 195 195 0 195 0 0 75 0 75
-290 0 -290 0 0 -640z"/>
<path d="M9702 3613 l3 -638 93 -3 92 -3 0 266 0 266 73 -3 72 -3 106 -260
106 -260 101 -3 c56 -1 102 -1 102 1 0 2 -53 128 -119 279 l-118 275 34 18
c46 25 91 78 122 145 24 51 26 65 26 195 0 125 -2 145 -23 190 -26 56 -73 109
-117 132 -67 35 -127 43 -343 43 l-212 0 2 -637z m435 461 c56 -42 68 -78 68
-199 0 -92 -3 -116 -20 -144 -38 -65 -64 -76 -186 -79 l-109 -4 0 227 0 227
109 -4 c93 -2 114 -6 138 -24z"/>
<path d="M10612 3613 l3 -638 93 -3 92 -3 0 641 0 640 -95 0 -95 0 2 -637z"/>
<path d="M11992 3973 c-123 -473 -252 -967 -258 -985 -5 -16 3 -18 79 -18 l85
0 40 163 40 162 178 0 177 0 8 -25 c4 -14 22 -87 39 -162 l32 -138 100 0 c90
0 99 2 94 18 -3 9 -71 276 -151 592 -81 316 -152 595 -159 620 l-13 45 -109 3
-109 3 -73 -278z m237 -221 c35 -152 66 -283 68 -289 4 -10 -27 -13 -136 -13
-78 0 -141 3 -141 8 -1 17 135 572 140 572 3 0 34 -125 69 -278z"/>
<path d="M9074 2626 c-39 -17 -71 -51 -92 -96 -24 -54 -24 -308 1 -372 56
-145 250 -156 327 -18 24 43 25 53 25 200 0 145 -2 158 -25 205 -19 38 -35 55
-70 73 -50 25 -118 28 -166 8z m148 -63 c31 -27 46 -70 53 -158 9 -102 -7
-230 -33 -264 -28 -38 -82 -54 -129 -38 -30 9 -43 22 -61 57 -22 42 -23 55
-20 197 3 135 5 155 24 180 11 15 32 34 45 41 31 17 95 9 121 -15z"/>
<path d="M10387 2626 c-21 -8 -48 -22 -59 -33 -58 -52 -88 -195 -69 -334 20
-148 77 -209 198 -209 77 0 93 6 93 36 0 22 -2 23 -62 18 -76 -6 -114 13 -144
72 -27 55 -28 283 -2 331 33 59 65 75 141 71 64 -3 67 -3 67 19 0 28 -6 31
-71 38 -35 3 -68 0 -92 -9z"/>
<path d="M10726 2630 c-44 -13 -83 -57 -103 -114 -25 -73 -25 -280 0 -353 30
-86 109 -133 201 -118 96 16 141 75 157 207 17 147 -8 292 -59 341 -45 43
-124 58 -196 37z m123 -55 c53 -27 66 -73 66 -235 0 -166 -11 -201 -76 -233
-72 -35 -139 6 -160 97 -17 76 -8 281 14 323 30 57 98 78 156 48z"/>
<path d="M12409 2631 c-67 -22 -99 -66 -99 -135 0 -62 24 -100 99 -160 82 -65
94 -85 94 -145 0 -77 -64 -109 -161 -82 -31 9 -32 9 -32 -19 0 -25 5 -30 35
-36 65 -12 143 0 171 27 88 81 68 196 -50 289 -37 29 -74 66 -82 82 -19 37
-12 88 16 113 20 19 76 24 123 12 24 -7 27 -5 27 17 0 14 -4 27 -8 30 -17 10
-108 15 -133 7z"/>
<path d="M6580 2340 l0 -290 125 0 125 0 0 25 c0 25 0 25 -95 25 l-95 0 0 115
0 115 80 0 c79 0 80 0 80 25 0 25 -1 25 -80 25 l-80 0 0 100 0 100 90 0 c89 0
90 0 90 25 l0 25 -120 0 -120 0 0 -290z"/>
<path d="M6884 2603 c4 -15 37 -145 74 -288 l67 -260 35 0 35 0 76 288 75 287
-27 0 c-24 0 -30 -6 -38 -37 -5 -21 -34 -132 -63 -246 -29 -115 -54 -203 -57
-195 -3 7 -30 117 -61 243 l-56 230 -33 3 c-31 3 -33 2 -27 -25z"/>
<path d="M7320 2340 l0 -290 125 0 125 0 0 25 c0 24 -2 24 -92 27 l-93 3 -3
113 -3 112 81 0 c79 0 80 0 80 25 0 25 -1 25 -80 25 l-80 0 0 100 0 100 95 0
c95 0 95 0 95 25 l0 25 -125 0 -125 0 0 -290z"/>
<path d="M7660 2341 l0 -291 30 0 30 0 0 125 0 125 43 0 42 -1 52 -122 c49
-116 53 -122 82 -125 17 -2 31 1 31 8 0 5 -22 61 -50 122 -27 61 -50 116 -50
120 0 5 13 20 29 33 42 36 54 74 49 155 -3 63 -7 73 -36 103 -32 32 -34 32
-142 35 l-110 4 0 -291z m200 219 c25 -25 34 -60 27 -117 -7 -65 -31 -85 -104
-87 l-58 -1 -3 113 -3 112 61 0 c46 0 64 -4 80 -20z"/>
<path d="M8020 2580 c11 -27 44 -109 75 -181 l55 -132 0 -108 0 -109 30 0 30
0 0 116 0 116 70 167 c39 92 70 171 70 175 0 4 -12 6 -27 4 -24 -3 -32 -16
-83 -141 l-57 -139 -31 74 c-17 40 -42 103 -57 141 -26 64 -29 67 -61 67 l-34
0 20 -50z"/>
<path d="M8550 2623 c0 -5 32 -135 72 -291 l72 -283 35 3 34 3 73 275 c40 151
73 281 74 288 0 9 -10 12 -27 10 -26 -3 -28 -7 -86 -241 -33 -131 -63 -235
-67 -230 -4 4 -28 97 -54 205 -69 287 -62 268 -96 268 -17 0 -30 -3 -30 -7z"/>
<path d="M9370 2605 c0 -24 2 -25 65 -25 l65 0 0 -266 0 -265 33 3 32 3 3 263
2 262 65 0 c63 0 65 1 65 25 l0 25 -165 0 -165 0 0 -25z"/>
<path d="M9770 2340 l0 -290 125 0 125 0 0 25 c0 25 0 25 -95 25 l-95 0 0 115
0 115 78 0 c75 0 79 1 77 23 -1 20 -7 22 -78 25 l-77 3 0 99 0 100 90 0 c89 0
90 0 90 25 l0 25 -120 0 -120 0 0 -290z"/>
<path d="M11080 2408 c0 -237 7 -286 45 -324 53 -53 170 -55 230 -3 47 42 55
91 55 339 l0 210 -30 0 -30 0 0 -226 c0 -186 -3 -232 -16 -260 -30 -62 -125
-68 -168 -10 -20 26 -21 43 -24 262 l-3 234 -30 0 -29 0 0 -222z"/>
<path d="M11520 2340 l0 -290 30 0 30 0 0 232 0 232 115 -232 c112 -227 115
-232 145 -232 l30 0 0 290 0 290 -30 0 -31 0 3 -220 c2 -121 1 -220 -2 -220
-3 0 -53 99 -112 220 l-106 220 -36 0 -36 0 0 -290z"/>
<path d="M11940 2605 c0 -24 2 -25 65 -25 l65 0 0 -265 0 -265 30 0 30 0 0
265 0 265 65 0 c63 0 65 1 65 25 l0 25 -160 0 -160 0 0 -25z"/>
<path d="M0 840 l0 -810 6400 0 6400 0 0 810 0 810 -6400 0 -6400 0 0 -810z"/>
</g>
</svg>
